<svg width="178" height="160" viewBox="0 0 178 160" fill="none" xmlns="http://www.w3.org/2000/svg">
<g id="Capa_1" clip-path="url(#clip0_100_4)">
<path id="Vector" d="M151.026 85.1977C144.766 113.946 119.162 135.563 88.5874 135.563C58.0124 135.563 32.389 113.966 26.1492 85.1977H1.29068C7.85252 127.504 44.4861 160 88.5672 160C132.648 160 169.302 127.504 175.844 85.1977H151.005H151.026Z" fill="white"/>
<path id="Vector_2" d="M0.646576 0L20.3724 0L58.0728 37.3306V0L77.7986 0V66.1194H58.0728L20.3724 31.1257L20.3724 66.1395H0.646576L0.646576 0Z" fill="white"/>
<path id="Vector_3" d="M100.222 0L119.947 0L157.648 37.3307V0L177.374 0V66.1194H157.648L119.947 31.1055V66.1194H100.222V0Z" fill="white"/>
</g>
<defs>
<clipPath id="clip0_100_4">
<rect width="176.707" height="160" fill="white" transform="translate(0.646576)"/>
</clipPath>
</defs>
</svg>
