<svg width="115" height="114" viewBox="0 0 115 114" fill="none" xmlns="http://www.w3.org/2000/svg">
<path id="Vector" d="M114.47 8.09026C105.873 19.9392 95.6741 22.1311 87.5069 23.8899C79.9711 25.5114 74.0029 26.8083 68.3345 34.6271C62.666 42.4458 63.286 48.5 64.0524 56.1694C64.8968 64.4862 65.9584 74.8606 57.3609 86.7095C48.7633 98.5585 38.5645 100.75 30.3974 102.509C22.8615 104.131 16.8933 105.428 11.2357 113.228L0.684585 105.555C9.28214 93.706 19.481 91.5141 27.6481 89.7552C35.1839 88.1337 41.1522 86.8368 46.8098 79.0369C52.4782 71.2182 51.8582 65.164 51.0918 57.4945C50.2474 49.1778 49.1858 38.8034 57.7833 26.9545C66.3809 15.1055 76.5797 12.9136 84.7468 11.1548C92.2826 9.5333 98.2509 8.23637 103.919 0.417652L114.47 8.09026Z" fill="#FFDD00"/>
</svg>
