<svg width="32" height="32" viewBox="0 0 32 32" fill="none" xmlns="http://www.w3.org/2000/svg">
<path id="Union" fill-rule="evenodd" clip-rule="evenodd" d="M16 0C14.8954 0 14 0.895431 14 2V11.1718L7.5147 4.68645C6.73366 3.9054 5.46733 3.9054 4.68628 4.68645C3.90523 5.4675 3.90523 6.73383 4.68628 7.51488L11.1714 14H2C0.89543 14 0 14.8954 0 16C0 17.1046 0.895431 18 2 18H11.1717L4.68628 24.4854C3.90523 25.2664 3.90523 26.5328 4.68628 27.3138C5.46733 28.0949 6.73366 28.0949 7.51471 27.3138L14 20.8285V30C14 31.1046 14.8954 32 16 32C17.1046 32 18 31.1046 18 30V20.8286L24.4853 27.3139C25.2663 28.0949 26.5326 28.0949 27.3137 27.3139C28.0947 26.5328 28.0947 25.2665 27.3137 24.4854L20.8282 18H30C31.1046 18 32 17.1046 32 16C32 14.8954 31.1046 14 30 14H20.8285L27.3137 7.51482C28.0947 6.73378 28.0947 5.46745 27.3137 4.6864C26.5326 3.90535 25.2663 3.90535 24.4853 4.6864L18 11.1717V2C18 0.895431 17.1046 0 16 0Z" fill="#FFDD00"/>
</svg>
